<svg xmlns="http://www.w3.org/2000/svg" version="1.1" xmlns:xlink="http://www.w3.org/1999/xlink" xmlns:svgjs="http://svgjs.dev/svgjs" viewBox="0 0 1000 800" opacity="0.48" width="1000" height="800"><g ><rect width="100" height="88.88888888888889" x="0" y="0" opacity="0.15"></rect><circle r="8.486842105263158" cx="0" cy="0" fill="hsla(137, 100%, 36%, 1.00)" stroke="none"></circle><rect width="100" height="88.88888888888889" x="100" y="0" opacity="0.15"></rect><circle r="8.486842105263158" cx="100" cy="0" fill="hsla(137, 100%, 36%, 1.00)" stroke="none"></circle><rect width="100" height="88.88888888888889" x="200" y="0" opacity="0.15"></rect><circle r="8.486842105263158" cx="200" cy="0" fill="hsla(137, 100%, 36%, 1.00)" stroke="none"></circle><rect width="100" height="88.88888888888889" x="300" y="0" opacity="0.15"></rect><circle r="8.486842105263158" cx="300" cy="0" fill="hsla(137, 100%, 36%, 1.00)" stroke="none"></circle><rect width="100" height="88.88888888888889" x="400" y="0" opacity="0.15"></rect><circle r="8.486842105263158" cx="400" cy="0" fill="hsla(137, 100%, 36%, 1.00)" stroke="none"></circle><rect width="100" height="88.88888888888889" x="500" y="0" opacity="0.15"></rect><circle r="8.486842105263158" cx="500" cy="0" fill="hsla(137, 100%, 36%, 1.00)" stroke="none"></circle><rect width="100" height="88.88888888888889" x="600" y="0" opacity="0.15"></rect><circle r="8.486842105263158" cx="600" cy="0" fill="hsla(137, 100%, 36%, 1.00)" stroke="none"></circle><rect width="100" height="88.88888888888889" x="700" y="0" opacity="0.15"></rect><circle r="8.486842105263158" cx="700" cy="0" fill="hsla(137, 100%, 36%, 1.00)" stroke="none"></circle><rect width="100" height="88.88888888888889" x="800" y="0" opacity="0.15"></rect><circle r="8.486842105263158" cx="800" cy="0" fill="hsla(137, 100%, 36%, 1.00)" stroke="none"></circle><rect width="100" height="88.88888888888889" x="0" y="88.88888888888889" opacity="0.15"></rect><circle r="8.486842105263158" cx="0" cy="88.88888888888889" fill="hsla(137, 100%, 36%, 1.00)" stroke="none"></circle><rect width="100" height="88.88888888888889" x="100" y="88.88888888888889" opacity="0.15"></rect><circle r="8.486842105263158" cx="100" cy="88.88888888888889" fill="hsla(137, 100%, 36%, 1.00)" stroke="none"></circle><rect width="100" height="88.88888888888889" x="200" y="88.88888888888889" opacity="0.15"></rect><circle r="8.486842105263158" cx="200" cy="88.88888888888889" fill="hsla(137, 100%, 36%, 1.00)" stroke="none"></circle><rect width="100" height="88.88888888888889" x="300" y="88.88888888888889" opacity="0.15"></rect><circle r="8.486842105263158" cx="300" cy="88.88888888888889" fill="hsla(137, 100%, 36%, 1.00)" stroke="none"></circle><rect width="100" height="88.88888888888889" x="400" y="88.88888888888889" opacity="0.15"></rect><circle r="8.486842105263158" cx="400" cy="88.88888888888889" fill="hsla(137, 100%, 36%, 1.00)" stroke="none"></circle><rect width="100" height="88.88888888888889" x="500" y="88.88888888888889" opacity="0.15"></rect><circle r="8.486842105263158" cx="500" cy="88.88888888888889" fill="hsla(137, 100%, 36%, 1.00)" stroke="none"></circle><rect width="100" height="88.88888888888889" x="600" y="88.88888888888889" opacity="0.15"></rect><circle r="8.486842105263158" cx="600" cy="88.88888888888889" fill="hsla(137, 100%, 36%, 1.00)" stroke="none"></circle><rect width="100" height="88.88888888888889" x="700" y="88.88888888888889" opacity="0.15"></rect><circle r="8.486842105263158" cx="700" cy="88.88888888888889" fill="hsla(137, 100%, 36%, 1.00)" stroke="none"></circle><rect width="100" height="88.88888888888889" x="800" y="88.88888888888889" opacity="0.15"></rect><circle r="8.486842105263158" cx="800" cy="88.88888888888889" fill="hsla(137, 100%, 36%, 1.00)" stroke="none"></circle><rect width="100" height="88.88888888888889" x="0" y="177.77777777777777" opacity="0.15"></rect><circle r="8.486842105263158" cx="0" cy="177.77777777777777" fill="hsla(137, 100%, 36%, 1.00)" stroke="none"></circle><rect width="100" height="88.88888888888889" x="100" y="177.77777777777777" opacity="0.15"></rect><circle r="8.486842105263158" cx="100" cy="177.77777777777777" fill="hsla(137, 100%, 36%, 1.00)" stroke="none"></circle><rect width="100" height="88.88888888888889" x="200" y="177.77777777777777" opacity="0.15"></rect><circle r="8.486842105263158" cx="200" cy="177.77777777777777" fill="hsla(137, 100%, 36%, 1.00)" stroke="none"></circle><rect width="100" height="88.88888888888889" x="300" y="177.77777777777777" opacity="0.15"></rect><circle r="8.486842105263158" cx="300" cy="177.77777777777777" fill="hsla(137, 100%, 36%, 1.00)" stroke="none"></circle><rect width="100" height="88.88888888888889" x="400" y="177.77777777777777" opacity="0.15"></rect><circle r="8.486842105263158" cx="400" cy="177.77777777777777" fill="hsla(137, 100%, 36%, 1.00)" stroke="none"></circle><rect width="100" height="88.88888888888889" x="500" y="177.77777777777777" opacity="0.15"></rect><circle r="8.486842105263158" cx="500" cy="177.77777777777777" fill="hsla(137, 100%, 36%, 1.00)" stroke="none"></circle><rect width="100" height="88.88888888888889" x="600" y="177.77777777777777" opacity="0.15"></rect><circle r="8.486842105263158" cx="600" cy="177.77777777777777" fill="hsla(137, 100%, 36%, 1.00)" stroke="none"></circle><rect width="100" height="88.88888888888889" x="700" y="177.77777777777777" opacity="0.15"></rect><circle r="8.486842105263158" cx="700" cy="177.77777777777777" fill="hsla(137, 100%, 36%, 1.00)" stroke="none"></circle><rect width="100" height="88.88888888888889" x="800" y="177.77777777777777" opacity="0.15"></rect><circle r="8.486842105263158" cx="800" cy="177.77777777777777" fill="hsla(137, 100%, 36%, 1.00)" stroke="none"></circle><rect width="100" height="88.88888888888889" x="0" y="266.66666666666663" opacity="0.15"></rect><circle r="8.486842105263158" cx="0" cy="266.66666666666663" fill="hsla(137, 100%, 36%, 1.00)" stroke="none"></circle><rect width="100" height="88.88888888888889" x="100" y="266.66666666666663" opacity="0.15"></rect><circle r="8.486842105263158" cx="100" cy="266.66666666666663" fill="hsla(137, 100%, 36%, 1.00)" stroke="none"></circle><rect width="100" height="88.88888888888889" x="200" y="266.66666666666663" opacity="0.15"></rect><circle r="8.486842105263158" cx="200" cy="266.66666666666663" fill="hsla(137, 100%, 36%, 1.00)" stroke="none"></circle><rect width="100" height="88.88888888888889" x="300" y="266.66666666666663" opacity="0.15"></rect><circle r="8.486842105263158" cx="300" cy="266.66666666666663" fill="hsla(137, 100%, 36%, 1.00)" stroke="none"></circle><rect width="100" height="88.88888888888889" x="400" y="266.66666666666663" opacity="0.15"></rect><circle r="8.486842105263158" cx="400" cy="266.66666666666663" fill="hsla(137, 100%, 36%, 1.00)" stroke="none"></circle><rect width="100" height="88.88888888888889" x="500" y="266.66666666666663" opacity="0.15"></rect><circle r="8.486842105263158" cx="500" cy="266.66666666666663" fill="hsla(137, 100%, 36%, 1.00)" stroke="none"></circle><rect width="100" height="88.88888888888889" x="600" y="266.66666666666663" opacity="0.15"></rect><circle r="8.486842105263158" cx="600" cy="266.66666666666663" fill="hsla(137, 100%, 36%, 1.00)" stroke="none"></circle><rect width="100" height="88.88888888888889" x="700" y="266.66666666666663" opacity="0.15"></rect><circle r="8.486842105263158" cx="700" cy="266.66666666666663" fill="hsla(137, 100%, 36%, 1.00)" stroke="none"></circle><rect width="100" height="88.88888888888889" x="800" y="266.66666666666663" opacity="0.15"></rect><circle r="8.486842105263158" cx="800" cy="266.66666666666663" fill="hsla(137, 100%, 36%, 1.00)" stroke="none"></circle><rect width="100" height="88.88888888888889" x="0" y="355.55555555555554" opacity="0.15"></rect><circle r="8.486842105263158" cx="0" cy="355.55555555555554" fill="hsla(137, 100%, 36%, 1.00)" stroke="none"></circle><rect width="100" height="88.88888888888889" x="100" y="355.55555555555554" opacity="0.15"></rect><circle r="8.486842105263158" cx="100" cy="355.55555555555554" fill="hsla(137, 100%, 36%, 1.00)" stroke="none"></circle><rect width="100" height="88.88888888888889" x="200" y="355.55555555555554" opacity="0.15"></rect><circle r="8.486842105263158" cx="200" cy="355.55555555555554" fill="hsla(137, 100%, 36%, 1.00)" stroke="none"></circle><rect width="100" height="88.88888888888889" x="300" y="355.55555555555554" opacity="0.15"></rect><circle r="8.486842105263158" cx="300" cy="355.55555555555554" fill="hsla(137, 100%, 36%, 1.00)" stroke="none"></circle><rect width="100" height="88.88888888888889" x="400" y="355.55555555555554" opacity="0.15"></rect><circle r="8.486842105263158" cx="400" cy="355.55555555555554" fill="hsla(137, 100%, 36%, 1.00)" stroke="none"></circle><rect width="100" height="88.88888888888889" x="500" y="355.55555555555554" opacity="0.15"></rect><circle r="8.486842105263158" cx="500" cy="355.55555555555554" fill="hsla(137, 100%, 36%, 1.00)" stroke="none"></circle><rect width="100" height="88.88888888888889" x="600" y="355.55555555555554" opacity="0.15"></rect><circle r="8.486842105263158" cx="600" cy="355.55555555555554" fill="hsla(137, 100%, 36%, 1.00)" stroke="none"></circle><rect width="100" height="88.88888888888889" x="700" y="355.55555555555554" opacity="0.15"></rect><circle r="8.486842105263158" cx="700" cy="355.55555555555554" fill="hsla(137, 100%, 36%, 1.00)" stroke="none"></circle><rect width="100" height="88.88888888888889" x="800" y="355.55555555555554" opacity="0.15"></rect><circle r="8.486842105263158" cx="800" cy="355.55555555555554" fill="hsla(137, 100%, 36%, 1.00)" stroke="none"></circle><rect width="100" height="88.88888888888889" x="0" y="444.44444444444446" opacity="0.15"></rect><circle r="8.486842105263158" cx="0" cy="444.44444444444446" fill="hsla(137, 100%, 36%, 1.00)" stroke="none"></circle><rect width="100" height="88.88888888888889" x="100" y="444.44444444444446" opacity="0.15"></rect><circle r="8.486842105263158" cx="100" cy="444.44444444444446" fill="hsla(137, 100%, 36%, 1.00)" stroke="none"></circle><rect width="100" height="88.88888888888889" x="200" y="444.44444444444446" opacity="0.15"></rect><circle r="8.486842105263158" cx="200" cy="444.44444444444446" fill="hsla(137, 100%, 36%, 1.00)" stroke="none"></circle><rect width="100" height="88.88888888888889" x="300" y="444.44444444444446" opacity="0.15"></rect><circle r="8.486842105263158" cx="300" cy="444.44444444444446" fill="hsla(137, 100%, 36%, 1.00)" stroke="none"></circle><rect width="100" height="88.88888888888889" x="400" y="444.44444444444446" opacity="0.15"></rect><circle r="8.486842105263158" cx="400" cy="444.44444444444446" fill="hsla(137, 100%, 36%, 1.00)" stroke="none"></circle><rect width="100" height="88.88888888888889" x="500" y="444.44444444444446" opacity="0.15"></rect><circle r="8.486842105263158" cx="500" cy="444.44444444444446" fill="hsla(137, 100%, 36%, 1.00)" stroke="none"></circle><rect width="100" height="88.88888888888889" x="600" y="444.44444444444446" opacity="0.15"></rect><circle r="8.486842105263158" cx="600" cy="444.44444444444446" fill="hsla(137, 100%, 36%, 1.00)" stroke="none"></circle><rect width="100" height="88.88888888888889" x="700" y="444.44444444444446" opacity="0.15"></rect><circle r="8.486842105263158" cx="700" cy="444.44444444444446" fill="hsla(137, 100%, 36%, 1.00)" stroke="none"></circle><rect width="100" height="88.88888888888889" x="800" y="444.44444444444446" opacity="0.15"></rect><circle r="8.486842105263158" cx="800" cy="444.44444444444446" fill="hsla(137, 100%, 36%, 1.00)" stroke="none"></circle><rect width="100" height="88.88888888888889" x="0" y="533.3333333333334" opacity="0.15"></rect><circle r="8.486842105263158" cx="0" cy="533.3333333333334" fill="hsla(137, 100%, 36%, 1.00)" stroke="none"></circle><rect width="100" height="88.88888888888889" x="100" y="533.3333333333334" opacity="0.15"></rect><circle r="8.486842105263158" cx="100" cy="533.3333333333334" fill="hsla(137, 100%, 36%, 1.00)" stroke="none"></circle><rect width="100" height="88.88888888888889" x="200" y="533.3333333333334" opacity="0.15"></rect><circle r="8.486842105263158" cx="200" cy="533.3333333333334" fill="hsla(137, 100%, 36%, 1.00)" stroke="none"></circle><rect width="100" height="88.88888888888889" x="300" y="533.3333333333334" opacity="0.15"></rect><circle r="8.486842105263158" cx="300" cy="533.3333333333334" fill="hsla(137, 100%, 36%, 1.00)" stroke="none"></circle><rect width="100" height="88.88888888888889" x="400" y="533.3333333333334" opacity="0.15"></rect><circle r="8.486842105263158" cx="400" cy="533.3333333333334" fill="hsla(137, 100%, 36%, 1.00)" stroke="none"></circle><rect width="100" height="88.88888888888889" x="500" y="533.3333333333334" opacity="0.15"></rect><circle r="8.486842105263158" cx="500" cy="533.3333333333334" fill="hsla(137, 100%, 36%, 1.00)" stroke="none"></circle><rect width="100" height="88.88888888888889" x="600" y="533.3333333333334" opacity="0.15"></rect><circle r="8.486842105263158" cx="600" cy="533.3333333333334" fill="hsla(137, 100%, 36%, 1.00)" stroke="none"></circle><rect width="100" height="88.88888888888889" x="700" y="533.3333333333334" opacity="0.15"></rect><circle r="8.486842105263158" cx="700" cy="533.3333333333334" fill="hsla(137, 100%, 36%, 1.00)" stroke="none"></circle><rect width="100" height="88.88888888888889" x="800" y="533.3333333333334" opacity="0.15"></rect><circle r="8.486842105263158" cx="800" cy="533.3333333333334" fill="hsla(137, 100%, 36%, 1.00)" stroke="none"></circle><rect width="100" height="88.88888888888889" x="0" y="622.2222222222223" opacity="0.15"></rect><circle r="8.486842105263158" cx="0" cy="622.2222222222223" fill="hsla(137, 100%, 36%, 1.00)" stroke="none"></circle><rect width="100" height="88.88888888888889" x="100" y="622.2222222222223" opacity="0.15"></rect><circle r="8.486842105263158" cx="100" cy="622.2222222222223" fill="hsla(137, 100%, 36%, 1.00)" stroke="none"></circle><rect width="100" height="88.88888888888889" x="200" y="622.2222222222223" opacity="0.15"></rect><circle r="8.486842105263158" cx="200" cy="622.2222222222223" fill="hsla(137, 100%, 36%, 1.00)" stroke="none"></circle><rect width="100" height="88.88888888888889" x="300" y="622.2222222222223" opacity="0.15"></rect><circle r="8.486842105263158" cx="300" cy="622.2222222222223" fill="hsla(137, 100%, 36%, 1.00)" stroke="none"></circle><rect width="100" height="88.88888888888889" x="400" y="622.2222222222223" opacity="0.15"></rect><circle r="8.486842105263158" cx="400" cy="622.2222222222223" fill="hsla(137, 100%, 36%, 1.00)" stroke="none"></circle><rect width="100" height="88.88888888888889" x="500" y="622.2222222222223" opacity="0.15"></rect><circle r="8.486842105263158" cx="500" cy="622.2222222222223" fill="hsla(137, 100%, 36%, 1.00)" stroke="none"></circle><rect width="100" height="88.88888888888889" x="600" y="622.2222222222223" opacity="0.15"></rect><circle r="8.486842105263158" cx="600" cy="622.2222222222223" fill="hsla(137, 100%, 36%, 1.00)" stroke="none"></circle><rect width="100" height="88.88888888888889" x="700" y="622.2222222222223" opacity="0.15"></rect><circle r="8.486842105263158" cx="700" cy="622.2222222222223" fill="hsla(137, 100%, 36%, 1.00)" stroke="none"></circle><rect width="100" height="88.88888888888889" x="800" y="622.2222222222223" opacity="0.15"></rect><circle r="8.486842105263158" cx="800" cy="622.2222222222223" fill="hsla(137, 100%, 36%, 1.00)" stroke="none"></circle><rect width="100" height="88.88888888888889" x="0" y="711.1111111111112" opacity="0.15"></rect><circle r="8.486842105263158" cx="0" cy="711.1111111111112" fill="hsla(137, 100%, 36%, 1.00)" stroke="none"></circle><rect width="100" height="88.88888888888889" x="100" y="711.1111111111112" opacity="0.15"></rect><circle r="8.486842105263158" cx="100" cy="711.1111111111112" fill="hsla(137, 100%, 36%, 1.00)" stroke="none"></circle><rect width="100" height="88.88888888888889" x="200" y="711.1111111111112" opacity="0.15"></rect><circle r="8.486842105263158" cx="200" cy="711.1111111111112" fill="hsla(137, 100%, 36%, 1.00)" stroke="none"></circle><rect width="100" height="88.88888888888889" x="300" y="711.1111111111112" opacity="0.15"></rect><circle r="8.486842105263158" cx="300" cy="711.1111111111112" fill="hsla(137, 100%, 36%, 1.00)" stroke="none"></circle><rect width="100" height="88.88888888888889" x="400" y="711.1111111111112" opacity="0.15"></rect><circle r="8.486842105263158" cx="400" cy="711.1111111111112" fill="hsla(137, 100%, 36%, 1.00)" stroke="none"></circle><rect width="100" height="88.88888888888889" x="500" y="711.1111111111112" opacity="0.15"></rect><circle r="8.486842105263158" cx="500" cy="711.1111111111112" fill="hsla(137, 100%, 36%, 1.00)" stroke="none"></circle><rect width="100" height="88.88888888888889" x="600" y="711.1111111111112" opacity="0.15"></rect><circle r="8.486842105263158" cx="600" cy="711.1111111111112" fill="hsla(137, 100%, 36%, 1.00)" stroke="none"></circle><rect width="100" height="88.88888888888889" x="700" y="711.1111111111112" opacity="0.15"></rect><circle r="8.486842105263158" cx="700" cy="711.1111111111112" fill="hsla(137, 100%, 36%, 1.00)" stroke="none"></circle><rect width="100" height="88.88888888888889" x="800" y="711.1111111111112" opacity="0.15"></rect><circle r="8.486842105263158" cx="800" cy="711.1111111111112" fill="hsla(137, 100%, 36%, 1.00)" stroke="none"></circle><rect width="100" height="88.88888888888889" x="0" y="800.0000000000001" opacity="0.15"></rect><circle r="8.486842105263158" cx="0" cy="800.0000000000001" fill="hsla(137, 100%, 36%, 1.00)" stroke="none"></circle><rect width="100" height="88.88888888888889" x="100" y="800.0000000000001" opacity="0.15"></rect><circle r="8.486842105263158" cx="100" cy="800.0000000000001" fill="hsla(137, 100%, 36%, 1.00)" stroke="none"></circle><rect width="100" height="88.88888888888889" x="200" y="800.0000000000001" opacity="0.15"></rect><circle r="8.486842105263158" cx="200" cy="800.0000000000001" fill="hsla(137, 100%, 36%, 1.00)" stroke="none"></circle><rect width="100" height="88.88888888888889" x="300" y="800.0000000000001" opacity="0.15"></rect><circle r="8.486842105263158" cx="300" cy="800.0000000000001" fill="hsla(137, 100%, 36%, 1.00)" stroke="none"></circle><rect width="100" height="88.88888888888889" x="400" y="800.0000000000001" opacity="0.15"></rect><circle r="8.486842105263158" cx="400" cy="800.0000000000001" fill="hsla(137, 100%, 36%, 1.00)" stroke="none"></circle><rect width="100" height="88.88888888888889" x="500" y="800.0000000000001" opacity="0.15"></rect><circle r="8.486842105263158" cx="500" cy="800.0000000000001" fill="hsla(137, 100%, 36%, 1.00)" stroke="none"></circle><rect width="100" height="88.88888888888889" x="600" y="800.0000000000001" opacity="0.15"></rect><circle r="8.486842105263158" cx="600" cy="800.0000000000001" fill="hsla(137, 100%, 36%, 1.00)" stroke="none"></circle><rect width="100" height="88.88888888888889" x="700" y="800.0000000000001" opacity="0.15"></rect><circle r="8.486842105263158" cx="700" cy="800.0000000000001" fill="hsla(137, 100%, 36%, 1.00)" stroke="none"></circle><rect width="100" height="88.88888888888889" x="800" y="800.0000000000001" opacity="0.15"></rect><circle r="8.486842105263158" cx="800" cy="800.0000000000001" fill="hsla(137, 100%, 36%, 1.00)" stroke="none"></circle></g></svg>